%TF.GenerationSoftware,KiCad,Pcbnew,9.0.0*%
%TF.CreationDate,2025-07-21T17:59:59-04:00*%
%TF.ProjectId,orphkicad,6f727068-6b69-4636-9164-2e6b69636164,rev?*%
%TF.SameCoordinates,Original*%
%TF.FileFunction,Copper,L2,Bot*%
%TF.FilePolarity,Positive*%
%FSLAX46Y46*%
G04 Gerber Fmt 4.6, Leading zero omitted, Abs format (unit mm)*
G04 Created by KiCad (PCBNEW 9.0.0) date 2025-07-21 17:59:59*
%MOMM*%
%LPD*%
G01*
G04 APERTURE LIST*
%TA.AperFunction,ComponentPad*%
%ADD10C,1.700000*%
%TD*%
%TA.AperFunction,ComponentPad*%
%ADD11R,1.700000X1.700000*%
%TD*%
%TA.AperFunction,ComponentPad*%
%ADD12O,1.100000X2.000000*%
%TD*%
%TA.AperFunction,ComponentPad*%
%ADD13O,1.200000X1.800000*%
%TD*%
%TA.AperFunction,ComponentPad*%
%ADD14C,1.600000*%
%TD*%
%TA.AperFunction,ComponentPad*%
%ADD15R,1.600000X1.600000*%
%TD*%
%TA.AperFunction,ViaPad*%
%ADD16C,0.500000*%
%TD*%
%TA.AperFunction,Conductor*%
%ADD17C,0.200000*%
%TD*%
G04 APERTURE END LIST*
D10*
%TO.P,REF\u002A\u002A,1*%
%TO.N,SWD*%
X78060000Y-80250000D03*
D11*
%TO.P,REF\u002A\u002A,2*%
%TO.N,GND*%
X80600000Y-80250000D03*
D10*
%TO.P,REF\u002A\u002A,3*%
%TO.N,SWCLK*%
X83140000Y-80250000D03*
%TD*%
D12*
%TO.P,J1,S1,SHIELD*%
%TO.N,GND*%
X84885000Y-37000000D03*
D13*
X84885000Y-32800000D03*
D12*
X76235000Y-37000000D03*
D13*
X76235000Y-32800000D03*
%TD*%
D14*
%TO.P,H2,1,1*%
%TO.N,VBUS*%
X89450000Y-31990000D03*
%TO.P,H2,2,2*%
%TO.N,VSYS*%
X89450000Y-34530000D03*
D15*
%TO.P,H2,3,3*%
%TO.N,GND*%
X89450000Y-37070000D03*
D14*
%TO.P,H2,4,4*%
%TO.N,unconnected-(H2-Pad4)*%
X89450000Y-39610000D03*
%TO.P,H2,5,5*%
%TO.N,3V3*%
X89450000Y-42150000D03*
%TO.P,H2,6,6*%
%TO.N,unconnected-(H2-Pad6)*%
X89450000Y-44690000D03*
%TO.P,H2,7,7*%
%TO.N,GPIO28*%
X89450000Y-47230000D03*
D15*
%TO.P,H2,8,8*%
%TO.N,GND*%
X89450000Y-49770000D03*
D14*
%TO.P,H2,9,9*%
%TO.N,GPIO27*%
X89450000Y-52310000D03*
%TO.P,H2,10,10*%
%TO.N,GPIO26*%
X89450000Y-54850000D03*
%TO.P,H2,11,11*%
%TO.N,RUN*%
X89450000Y-57390000D03*
%TO.P,H2,12,12*%
%TO.N,GPIO22*%
X89450000Y-59930000D03*
D15*
%TO.P,H2,13,13*%
%TO.N,GND*%
X89450000Y-62470000D03*
D14*
%TO.P,H2,14,14*%
%TO.N,GPIO21*%
X89450000Y-65010000D03*
%TO.P,H2,15,15*%
%TO.N,GPIO20*%
X89450000Y-67550000D03*
%TO.P,H2,16,16*%
%TO.N,GPIO19*%
X89450000Y-70090000D03*
%TO.P,H2,17,17*%
%TO.N,GPIO18*%
X89450000Y-72630000D03*
D15*
%TO.P,H2,18,18*%
%TO.N,GND*%
X89450000Y-75170000D03*
D14*
%TO.P,H2,19,19*%
%TO.N,GPIO17*%
X89450000Y-77710000D03*
%TO.P,H2,20,20*%
%TO.N,GPIO16*%
X89450000Y-80250000D03*
%TD*%
%TO.P,H1,1,1*%
%TO.N,GPIO0*%
X71670000Y-31990000D03*
%TO.P,H1,2,2*%
%TO.N,GPIO1*%
X71670000Y-34530000D03*
D15*
%TO.P,H1,3,3*%
%TO.N,GND*%
X71670000Y-37070000D03*
D14*
%TO.P,H1,4,4*%
%TO.N,GPIO2*%
X71670000Y-39610000D03*
%TO.P,H1,5,5*%
%TO.N,GPIO3*%
X71670000Y-42150000D03*
%TO.P,H1,6,6*%
%TO.N,GPIO4*%
X71670000Y-44690000D03*
%TO.P,H1,7,7*%
%TO.N,GPIO5*%
X71670000Y-47230000D03*
D15*
%TO.P,H1,8,8*%
%TO.N,GND*%
X71670000Y-49770000D03*
D14*
%TO.P,H1,9,9*%
%TO.N,GPIO6*%
X71670000Y-52310000D03*
%TO.P,H1,10,10*%
%TO.N,GPIO7*%
X71670000Y-54850000D03*
%TO.P,H1,11,11*%
%TO.N,GPIO8*%
X71670000Y-57390000D03*
%TO.P,H1,12,12*%
%TO.N,GPIO9*%
X71670000Y-59930000D03*
D15*
%TO.P,H1,13,13*%
%TO.N,GND*%
X71670000Y-62470000D03*
D14*
%TO.P,H1,14,14*%
%TO.N,GPIO10*%
X71670000Y-65010000D03*
%TO.P,H1,15,15*%
%TO.N,GPIO11*%
X71670000Y-67550000D03*
%TO.P,H1,16,16*%
%TO.N,GPIO12*%
X71670000Y-70090000D03*
%TO.P,H1,17,17*%
%TO.N,GPIO13*%
X71670000Y-72630000D03*
D15*
%TO.P,H1,18,18*%
%TO.N,GND*%
X71670000Y-75170000D03*
D14*
%TO.P,H1,19,19*%
%TO.N,GPIO14*%
X71670000Y-77710000D03*
%TO.P,H1,20,20*%
%TO.N,GPIO15*%
X71670000Y-80250000D03*
%TD*%
D16*
%TO.N,GND*%
X77800000Y-60300000D03*
%TO.N,SWD*%
X81586398Y-60125000D03*
%TO.N,GND*%
X79337500Y-66162500D03*
%TO.N,GPIO23*%
X82700000Y-58400000D03*
%TO.N,GPIO24*%
X82582425Y-57318822D03*
%TO.N,RUN*%
X82625000Y-65690000D03*
%TO.N,3V3*%
X86225000Y-60300000D03*
X80737500Y-55487500D03*
X78800000Y-55550000D03*
X84500000Y-73500000D03*
X82000000Y-55875000D03*
X84525000Y-64675000D03*
%TO.N,SWCLK*%
X80950000Y-60125000D03*
%TO.N,GPIO24*%
X81450000Y-71625000D03*
%TO.N,GPIO23*%
X77350000Y-73185000D03*
%TO.N,GPIO25*%
X82800000Y-56025000D03*
X77425000Y-47825000D03*
%TO.N,GND*%
X80950000Y-64350000D03*
X77350000Y-68815000D03*
X76275000Y-54725000D03*
X77600000Y-51150000D03*
X85175000Y-78700000D03*
X79725000Y-57450000D03*
X74975000Y-60550000D03*
X80775000Y-39700000D03*
X83875000Y-39125000D03*
X83450000Y-48350000D03*
X82450000Y-51560000D03*
%TD*%
D17*
%TO.N,GPIO24*%
X83600000Y-61474322D02*
X81450000Y-63624322D01*
X83600000Y-58336397D02*
X83600000Y-61474322D01*
X81450000Y-63624322D02*
X81450000Y-71625000D01*
X82582425Y-57318822D02*
X83600000Y-58336397D01*
%TO.N,SWCLK*%
X78361000Y-62714000D02*
X78361000Y-75471000D01*
X78361000Y-75471000D02*
X83140000Y-80250000D01*
X80950000Y-60125000D02*
X78361000Y-62714000D01*
%TO.N,GPIO23*%
X76899000Y-72734000D02*
X77350000Y-73185000D01*
X76899000Y-63112511D02*
X76899000Y-72734000D01*
X81611511Y-58400000D02*
X76899000Y-63112511D01*
X82700000Y-58400000D02*
X81611511Y-58400000D01*
%TO.N,3V3*%
X84500000Y-73500000D02*
X84525000Y-73475000D01*
X84525000Y-73475000D02*
X84525000Y-64675000D01*
%TO.N,RUN*%
X88110000Y-57390000D02*
X89450000Y-57390000D01*
X82625000Y-65690000D02*
X82625000Y-62875000D01*
X82625000Y-62875000D02*
X88110000Y-57390000D01*
%TO.N,3V3*%
X82000000Y-55875000D02*
X81125000Y-55875000D01*
X84525000Y-64675000D02*
X86225000Y-62975000D01*
X80737500Y-55487500D02*
X80237500Y-55487500D01*
X80175000Y-55550000D02*
X78800000Y-55550000D01*
X80237500Y-55487500D02*
X80175000Y-55550000D01*
X86225000Y-62975000D02*
X86225000Y-60300000D01*
X81125000Y-55875000D02*
X80737500Y-55487500D01*
%TO.N,GPIO25*%
X82800000Y-56025000D02*
X82800000Y-53200000D01*
X82800000Y-53200000D02*
X77425000Y-47825000D01*
%TO.N,SWD*%
X78060000Y-62377189D02*
X78060000Y-80250000D01*
X81135398Y-59674000D02*
X80763189Y-59674000D01*
X81586398Y-60125000D02*
X81135398Y-59674000D01*
X80763189Y-59674000D02*
X78060000Y-62377189D01*
%TD*%
%TA.AperFunction,Conductor*%
%TO.N,GND*%
G36*
X88370552Y-31040185D02*
G01*
X88416307Y-31092989D01*
X88426251Y-31162147D01*
X88403831Y-31217385D01*
X88337715Y-31308386D01*
X88244781Y-31490776D01*
X88181522Y-31685465D01*
X88149500Y-31887648D01*
X88149500Y-32092351D01*
X88181522Y-32294534D01*
X88244781Y-32489223D01*
X88337715Y-32671613D01*
X88458028Y-32837213D01*
X88602786Y-32981971D01*
X88757749Y-33094556D01*
X88768390Y-33102287D01*
X88859840Y-33148883D01*
X88861080Y-33149515D01*
X88911876Y-33197490D01*
X88928671Y-33265311D01*
X88906134Y-33331446D01*
X88861080Y-33370485D01*
X88768386Y-33417715D01*
X88602786Y-33538028D01*
X88458028Y-33682786D01*
X88337715Y-33848386D01*
X88244781Y-34030776D01*
X88181522Y-34225465D01*
X88149500Y-34427648D01*
X88149500Y-34632351D01*
X88181522Y-34834534D01*
X88244781Y-35029223D01*
X88337715Y-35211613D01*
X88458028Y-35377213D01*
X88602786Y-35521971D01*
X88757749Y-35634556D01*
X88768390Y-35642287D01*
X88884607Y-35701503D01*
X88950776Y-35735218D01*
X88950778Y-35735218D01*
X88950781Y-35735220D01*
X89042302Y-35764957D01*
X89145465Y-35798477D01*
X89246557Y-35814488D01*
X89347648Y-35830500D01*
X89347649Y-35830500D01*
X89552351Y-35830500D01*
X89552352Y-35830500D01*
X89754534Y-35798477D01*
X89949219Y-35735220D01*
X90131610Y-35642287D01*
X90224590Y-35574732D01*
X90297213Y-35521971D01*
X90297215Y-35521968D01*
X90297219Y-35521966D01*
X90441966Y-35377219D01*
X90441966Y-35377218D01*
X90445411Y-35373774D01*
X90446370Y-35374733D01*
X90499725Y-35339909D01*
X90569593Y-35339415D01*
X90628637Y-35376773D01*
X90658110Y-35440122D01*
X90659500Y-35458636D01*
X90659500Y-38681363D01*
X90639815Y-38748402D01*
X90587011Y-38794157D01*
X90517853Y-38804101D01*
X90454297Y-38775076D01*
X90445459Y-38766177D01*
X90445411Y-38766226D01*
X90297213Y-38618028D01*
X90131613Y-38497715D01*
X90131612Y-38497714D01*
X90131610Y-38497713D01*
X90074653Y-38468691D01*
X89949223Y-38404781D01*
X89754534Y-38341522D01*
X89579995Y-38313878D01*
X89552352Y-38309500D01*
X89347648Y-38309500D01*
X89323329Y-38313351D01*
X89145465Y-38341522D01*
X88950776Y-38404781D01*
X88768386Y-38497715D01*
X88602786Y-38618028D01*
X88458028Y-38762786D01*
X88337715Y-38928386D01*
X88244781Y-39110776D01*
X88181522Y-39305465D01*
X88149500Y-39507648D01*
X88149500Y-39712351D01*
X88181522Y-39914534D01*
X88244781Y-40109223D01*
X88337715Y-40291613D01*
X88458028Y-40457213D01*
X88602786Y-40601971D01*
X88757749Y-40714556D01*
X88768390Y-40722287D01*
X88859840Y-40768883D01*
X88861080Y-40769515D01*
X88911876Y-40817490D01*
X88928671Y-40885311D01*
X88906134Y-40951446D01*
X88861080Y-40990485D01*
X88768386Y-41037715D01*
X88602786Y-41158028D01*
X88458028Y-41302786D01*
X88337715Y-41468386D01*
X88244781Y-41650776D01*
X88181522Y-41845465D01*
X88149500Y-42047648D01*
X88149500Y-42252351D01*
X88181522Y-42454534D01*
X88244781Y-42649223D01*
X88337715Y-42831613D01*
X88458028Y-42997213D01*
X88602786Y-43141971D01*
X88757749Y-43254556D01*
X88768390Y-43262287D01*
X88859840Y-43308883D01*
X88861080Y-43309515D01*
X88911876Y-43357490D01*
X88928671Y-43425311D01*
X88906134Y-43491446D01*
X88861080Y-43530485D01*
X88768386Y-43577715D01*
X88602786Y-43698028D01*
X88458028Y-43842786D01*
X88337715Y-44008386D01*
X88244781Y-44190776D01*
X88181522Y-44385465D01*
X88149500Y-44587648D01*
X88149500Y-44792351D01*
X88181522Y-44994534D01*
X88244781Y-45189223D01*
X88337715Y-45371613D01*
X88458028Y-45537213D01*
X88602786Y-45681971D01*
X88757749Y-45794556D01*
X88768390Y-45802287D01*
X88859840Y-45848883D01*
X88861080Y-45849515D01*
X88911876Y-45897490D01*
X88928671Y-45965311D01*
X88906134Y-46031446D01*
X88861080Y-46070485D01*
X88768386Y-46117715D01*
X88602786Y-46238028D01*
X88458028Y-46382786D01*
X88337715Y-46548386D01*
X88244781Y-46730776D01*
X88181522Y-46925465D01*
X88149500Y-47127648D01*
X88149500Y-47332351D01*
X88181522Y-47534534D01*
X88244781Y-47729223D01*
X88337715Y-47911613D01*
X88458028Y-48077213D01*
X88602786Y-48221971D01*
X88714888Y-48303416D01*
X88768390Y-48342287D01*
X88884607Y-48401503D01*
X88950776Y-48435218D01*
X88950778Y-48435218D01*
X88950781Y-48435220D01*
X89055137Y-48469127D01*
X89145465Y-48498477D01*
X89246557Y-48514488D01*
X89347648Y-48530500D01*
X89347649Y-48530500D01*
X89552351Y-48530500D01*
X89552352Y-48530500D01*
X89754534Y-48498477D01*
X89949219Y-48435220D01*
X90131610Y-48342287D01*
X90224590Y-48274732D01*
X90297213Y-48221971D01*
X90297215Y-48221968D01*
X90297219Y-48221966D01*
X90441966Y-48077219D01*
X90441966Y-48077218D01*
X90445411Y-48073774D01*
X90446370Y-48074733D01*
X90499725Y-48039909D01*
X90569593Y-48039415D01*
X90628637Y-48076773D01*
X90658110Y-48140122D01*
X90659500Y-48158636D01*
X90659500Y-51381363D01*
X90639815Y-51448402D01*
X90587011Y-51494157D01*
X90517853Y-51504101D01*
X90454297Y-51475076D01*
X90445459Y-51466177D01*
X90445411Y-51466226D01*
X90297213Y-51318028D01*
X90131613Y-51197715D01*
X90131612Y-51197714D01*
X90131610Y-51197713D01*
X90074653Y-51168691D01*
X89949223Y-51104781D01*
X89754534Y-51041522D01*
X89579995Y-51013878D01*
X89552352Y-51009500D01*
X89347648Y-51009500D01*
X89323329Y-51013351D01*
X89145465Y-51041522D01*
X88950776Y-51104781D01*
X88768386Y-51197715D01*
X88602786Y-51318028D01*
X88458028Y-51462786D01*
X88337715Y-51628386D01*
X88244781Y-51810776D01*
X88181522Y-52005465D01*
X88149500Y-52207648D01*
X88149500Y-52412351D01*
X88181522Y-52614534D01*
X88244781Y-52809223D01*
X88337715Y-52991613D01*
X88458028Y-53157213D01*
X88602786Y-53301971D01*
X88754804Y-53412416D01*
X88768390Y-53422287D01*
X88859840Y-53468883D01*
X88861080Y-53469515D01*
X88911876Y-53517490D01*
X88928671Y-53585311D01*
X88906134Y-53651446D01*
X88861080Y-53690485D01*
X88768386Y-53737715D01*
X88602786Y-53858028D01*
X88458028Y-54002786D01*
X88337715Y-54168386D01*
X88244781Y-54350776D01*
X88181522Y-54545465D01*
X88149500Y-54747648D01*
X88149500Y-54952351D01*
X88181522Y-55154530D01*
X88181522Y-55154534D01*
X88244781Y-55349223D01*
X88308691Y-55474653D01*
X88309418Y-55476079D01*
X88337715Y-55531613D01*
X88458028Y-55697213D01*
X88602786Y-55841971D01*
X88757749Y-55954556D01*
X88768390Y-55962287D01*
X88859840Y-56008883D01*
X88861080Y-56009515D01*
X88911876Y-56057490D01*
X88928671Y-56125311D01*
X88906134Y-56191446D01*
X88861080Y-56230485D01*
X88768386Y-56277715D01*
X88602786Y-56398028D01*
X88458028Y-56542786D01*
X88337715Y-56708385D01*
X88330883Y-56721795D01*
X88282909Y-56772591D01*
X88220398Y-56789500D01*
X88030940Y-56789500D01*
X87990019Y-56800464D01*
X87990019Y-56800465D01*
X87952751Y-56810451D01*
X87878214Y-56830423D01*
X87878209Y-56830426D01*
X87741290Y-56909475D01*
X87741282Y-56909481D01*
X84412181Y-60238583D01*
X84350858Y-60272068D01*
X84281166Y-60267084D01*
X84225233Y-60225212D01*
X84200816Y-60159748D01*
X84200500Y-60150902D01*
X84200500Y-58257342D01*
X84200500Y-58257340D01*
X84159577Y-58104613D01*
X84159573Y-58104606D01*
X84080524Y-57967687D01*
X84080521Y-57967683D01*
X84080520Y-57967681D01*
X83968716Y-57855877D01*
X83968715Y-57855876D01*
X83964385Y-57851546D01*
X83964374Y-57851536D01*
X83353359Y-57240521D01*
X83319874Y-57179198D01*
X83319450Y-57177168D01*
X83304083Y-57099909D01*
X83298100Y-57085465D01*
X83247512Y-56963333D01*
X83247505Y-56963320D01*
X83161992Y-56835341D01*
X83164304Y-56833795D01*
X83141676Y-56780455D01*
X83153495Y-56711592D01*
X83195956Y-56663048D01*
X83278416Y-56607951D01*
X83382951Y-56503416D01*
X83465084Y-56380495D01*
X83521658Y-56243913D01*
X83533872Y-56182511D01*
X83550500Y-56098920D01*
X83550500Y-55951079D01*
X83521659Y-55806092D01*
X83521658Y-55806091D01*
X83521658Y-55806087D01*
X83465084Y-55669505D01*
X83421396Y-55604121D01*
X83400520Y-55537444D01*
X83400500Y-55535232D01*
X83400500Y-53289059D01*
X83400501Y-53289046D01*
X83400501Y-53120945D01*
X83400501Y-53120943D01*
X83359577Y-52968215D01*
X83330639Y-52918095D01*
X83280520Y-52831284D01*
X83168716Y-52719480D01*
X83168715Y-52719479D01*
X83164385Y-52715149D01*
X83164374Y-52715139D01*
X78195934Y-47746699D01*
X78162449Y-47685376D01*
X78162025Y-47683346D01*
X78146658Y-47606087D01*
X78117020Y-47534534D01*
X78090087Y-47469511D01*
X78090080Y-47469498D01*
X78007951Y-47346584D01*
X78007948Y-47346580D01*
X77903419Y-47242051D01*
X77903415Y-47242048D01*
X77780501Y-47159919D01*
X77780488Y-47159912D01*
X77643917Y-47103343D01*
X77643907Y-47103340D01*
X77498920Y-47074500D01*
X77498918Y-47074500D01*
X77351082Y-47074500D01*
X77351080Y-47074500D01*
X77206092Y-47103340D01*
X77206082Y-47103343D01*
X77069511Y-47159912D01*
X77069498Y-47159919D01*
X76946584Y-47242048D01*
X76946580Y-47242051D01*
X76842051Y-47346580D01*
X76842048Y-47346584D01*
X76759919Y-47469498D01*
X76759912Y-47469511D01*
X76703343Y-47606082D01*
X76703340Y-47606092D01*
X76674500Y-47751079D01*
X76674500Y-47751082D01*
X76674500Y-47898918D01*
X76674500Y-47898920D01*
X76674499Y-47898920D01*
X76703340Y-48043907D01*
X76703343Y-48043917D01*
X76759912Y-48180488D01*
X76759919Y-48180501D01*
X76842048Y-48303415D01*
X76842051Y-48303419D01*
X76946580Y-48407948D01*
X76946584Y-48407951D01*
X77069498Y-48490080D01*
X77069511Y-48490087D01*
X77167078Y-48530500D01*
X77206087Y-48546658D01*
X77283212Y-48561999D01*
X77345119Y-48594382D01*
X77346699Y-48595934D01*
X82163181Y-53412416D01*
X82196666Y-53473739D01*
X82199500Y-53500097D01*
X82199500Y-55000500D01*
X82179815Y-55067539D01*
X82127011Y-55113294D01*
X82075500Y-55124500D01*
X81926080Y-55124500D01*
X81781092Y-55153340D01*
X81781082Y-55153343D01*
X81644511Y-55209912D01*
X81644495Y-55209921D01*
X81605930Y-55235689D01*
X81539252Y-55256566D01*
X81471873Y-55238080D01*
X81425183Y-55186101D01*
X81422480Y-55180038D01*
X81402587Y-55132010D01*
X81402580Y-55131998D01*
X81320451Y-55009084D01*
X81320448Y-55009080D01*
X81215919Y-54904551D01*
X81215915Y-54904548D01*
X81093001Y-54822419D01*
X81092988Y-54822412D01*
X80956417Y-54765843D01*
X80956407Y-54765840D01*
X80811420Y-54737000D01*
X80811418Y-54737000D01*
X80663582Y-54737000D01*
X80663580Y-54737000D01*
X80518592Y-54765840D01*
X80518582Y-54765843D01*
X80382011Y-54822412D01*
X80381998Y-54822419D01*
X80316624Y-54866102D01*
X80249947Y-54886980D01*
X80247733Y-54887000D01*
X80158440Y-54887000D01*
X80117519Y-54897964D01*
X80117519Y-54897965D01*
X80092948Y-54904549D01*
X80005714Y-54927923D01*
X80005713Y-54927924D01*
X79997118Y-54932887D01*
X79935118Y-54949500D01*
X79289767Y-54949500D01*
X79222728Y-54929815D01*
X79220876Y-54928602D01*
X79155501Y-54884919D01*
X79155488Y-54884912D01*
X79018917Y-54828343D01*
X79018907Y-54828340D01*
X78873920Y-54799500D01*
X78873918Y-54799500D01*
X78726082Y-54799500D01*
X78726080Y-54799500D01*
X78581092Y-54828340D01*
X78581082Y-54828343D01*
X78444511Y-54884912D01*
X78444498Y-54884919D01*
X78321584Y-54967048D01*
X78321580Y-54967051D01*
X78217051Y-55071580D01*
X78217048Y-55071584D01*
X78134919Y-55194498D01*
X78134912Y-55194511D01*
X78078343Y-55331082D01*
X78078340Y-55331092D01*
X78049500Y-55476079D01*
X78049500Y-55476082D01*
X78049500Y-55623918D01*
X78049500Y-55623920D01*
X78049499Y-55623920D01*
X78078340Y-55768907D01*
X78078343Y-55768917D01*
X78134912Y-55905488D01*
X78134919Y-55905501D01*
X78217048Y-56028415D01*
X78217051Y-56028419D01*
X78321580Y-56132948D01*
X78321584Y-56132951D01*
X78444498Y-56215080D01*
X78444511Y-56215087D01*
X78549161Y-56258434D01*
X78581087Y-56271658D01*
X78581091Y-56271658D01*
X78581092Y-56271659D01*
X78726079Y-56300500D01*
X78726082Y-56300500D01*
X78873920Y-56300500D01*
X78988473Y-56277713D01*
X79018913Y-56271658D01*
X79155495Y-56215084D01*
X79220876Y-56171398D01*
X79287553Y-56150520D01*
X79289767Y-56150500D01*
X80095939Y-56150500D01*
X80095943Y-56150501D01*
X80254057Y-56150501D01*
X80301566Y-56137770D01*
X80314181Y-56137030D01*
X80336400Y-56142161D01*
X80359201Y-56142704D01*
X80379905Y-56151462D01*
X80382004Y-56152584D01*
X80454255Y-56182511D01*
X80518587Y-56209158D01*
X80595710Y-56224499D01*
X80657618Y-56256882D01*
X80659198Y-56258434D01*
X80756284Y-56355520D01*
X80756286Y-56355521D01*
X80756290Y-56355524D01*
X80829921Y-56398034D01*
X80893216Y-56434577D01*
X81045943Y-56475501D01*
X81045945Y-56475501D01*
X81211654Y-56475501D01*
X81211670Y-56475500D01*
X81510233Y-56475500D01*
X81577272Y-56495185D01*
X81579124Y-56496398D01*
X81644498Y-56540080D01*
X81644511Y-56540087D01*
X81781082Y-56596656D01*
X81781087Y-56596658D01*
X81781091Y-56596658D01*
X81781092Y-56596659D01*
X81926080Y-56625500D01*
X81927612Y-56625651D01*
X81928362Y-56625954D01*
X81932057Y-56626689D01*
X81931917Y-56627389D01*
X81992400Y-56651809D01*
X82032761Y-56708843D01*
X82035880Y-56778643D01*
X82003149Y-56836730D01*
X81999474Y-56840404D01*
X81999473Y-56840406D01*
X81917344Y-56963320D01*
X81917337Y-56963333D01*
X81860768Y-57099904D01*
X81860765Y-57099914D01*
X81831925Y-57244901D01*
X81831925Y-57244904D01*
X81831925Y-57392740D01*
X81831925Y-57392742D01*
X81831924Y-57392742D01*
X81860765Y-57537729D01*
X81860768Y-57537739D01*
X81898175Y-57628048D01*
X81901682Y-57660673D01*
X81906352Y-57693147D01*
X81905398Y-57695234D01*
X81905644Y-57697517D01*
X81890960Y-57726849D01*
X81877327Y-57756703D01*
X81875394Y-57757944D01*
X81874368Y-57759996D01*
X81846165Y-57776729D01*
X81818549Y-57794477D01*
X81815518Y-57794912D01*
X81814279Y-57795648D01*
X81783614Y-57799500D01*
X81698180Y-57799500D01*
X81698164Y-57799499D01*
X81690568Y-57799499D01*
X81532454Y-57799499D01*
X81425098Y-57828265D01*
X81379721Y-57840424D01*
X81379720Y-57840425D01*
X81329607Y-57869359D01*
X81329606Y-57869360D01*
X81295209Y-57889219D01*
X81242796Y-57919479D01*
X81242793Y-57919481D01*
X76418479Y-62743795D01*
X76398488Y-62778421D01*
X76390039Y-62793057D01*
X76339423Y-62880726D01*
X76298499Y-63033454D01*
X76298499Y-63033456D01*
X76298499Y-63201557D01*
X76298500Y-63201570D01*
X76298500Y-72647330D01*
X76298499Y-72647348D01*
X76298499Y-72813054D01*
X76298498Y-72813054D01*
X76298499Y-72813057D01*
X76339423Y-72965785D01*
X76367337Y-73014133D01*
X76368358Y-73015900D01*
X76368359Y-73015904D01*
X76368360Y-73015904D01*
X76418479Y-73102714D01*
X76418481Y-73102717D01*
X76537349Y-73221585D01*
X76537355Y-73221590D01*
X76579064Y-73263299D01*
X76612549Y-73324622D01*
X76613000Y-73326788D01*
X76628340Y-73403907D01*
X76628343Y-73403917D01*
X76684912Y-73540488D01*
X76684919Y-73540501D01*
X76767048Y-73663415D01*
X76767051Y-73663419D01*
X76871580Y-73767948D01*
X76871584Y-73767951D01*
X76994498Y-73850080D01*
X76994511Y-73850087D01*
X77111336Y-73898477D01*
X77131087Y-73906658D01*
X77131091Y-73906658D01*
X77131092Y-73906659D01*
X77276079Y-73935500D01*
X77335500Y-73935500D01*
X77402539Y-73955185D01*
X77448294Y-74007989D01*
X77459500Y-74059500D01*
X77459500Y-78964281D01*
X77439815Y-79031320D01*
X77391795Y-79074765D01*
X77352185Y-79094947D01*
X77352184Y-79094948D01*
X77180213Y-79219890D01*
X77029890Y-79370213D01*
X76904951Y-79542179D01*
X76808444Y-79731585D01*
X76742753Y-79933760D01*
X76709500Y-80143713D01*
X76709500Y-80356286D01*
X76742753Y-80566239D01*
X76808444Y-80768414D01*
X76904951Y-80957820D01*
X76952027Y-81022615D01*
X76975507Y-81088422D01*
X76959681Y-81156475D01*
X76909575Y-81205170D01*
X76851709Y-81219500D01*
X72816487Y-81219500D01*
X72749448Y-81199815D01*
X72703693Y-81147011D01*
X72693749Y-81077853D01*
X72716169Y-81022615D01*
X72763247Y-80957816D01*
X72782287Y-80931610D01*
X72875220Y-80749219D01*
X72938477Y-80554534D01*
X72970500Y-80352352D01*
X72970500Y-80147648D01*
X72938477Y-79945466D01*
X72934673Y-79933760D01*
X72897453Y-79819208D01*
X72875220Y-79750781D01*
X72875218Y-79750778D01*
X72875218Y-79750776D01*
X72841503Y-79684607D01*
X72782287Y-79568390D01*
X72774556Y-79557749D01*
X72661971Y-79402786D01*
X72517213Y-79258028D01*
X72351614Y-79137715D01*
X72345006Y-79134348D01*
X72258917Y-79090483D01*
X72208123Y-79042511D01*
X72191328Y-78974690D01*
X72213865Y-78908555D01*
X72258917Y-78869516D01*
X72351610Y-78822287D01*
X72372770Y-78806913D01*
X72517213Y-78701971D01*
X72517215Y-78701968D01*
X72517219Y-78701966D01*
X72661966Y-78557219D01*
X72661968Y-78557215D01*
X72661971Y-78557213D01*
X72714732Y-78484590D01*
X72782287Y-78391610D01*
X72875220Y-78209219D01*
X72938477Y-78014534D01*
X72970500Y-77812352D01*
X72970500Y-77607648D01*
X72938477Y-77405466D01*
X72875220Y-77210781D01*
X72875218Y-77210778D01*
X72875218Y-77210776D01*
X72841503Y-77144607D01*
X72782287Y-77028390D01*
X72774556Y-77017749D01*
X72661971Y-76862786D01*
X72517213Y-76718028D01*
X72351613Y-76597715D01*
X72351612Y-76597714D01*
X72351610Y-76597713D01*
X72294653Y-76568691D01*
X72169223Y-76504781D01*
X71974534Y-76441522D01*
X71799995Y-76413878D01*
X71772352Y-76409500D01*
X71567648Y-76409500D01*
X71543329Y-76413351D01*
X71365465Y-76441522D01*
X71170776Y-76504781D01*
X70988386Y-76597715D01*
X70822786Y-76718028D01*
X70822782Y-76718032D01*
X70674589Y-76866226D01*
X70673633Y-76865270D01*
X70620254Y-76900096D01*
X70550386Y-76900578D01*
X70491349Y-76863210D01*
X70461887Y-76799856D01*
X70460500Y-76781363D01*
X70460500Y-73558636D01*
X70480185Y-73491597D01*
X70532989Y-73445842D01*
X70602147Y-73435898D01*
X70665703Y-73464923D01*
X70674540Y-73473822D01*
X70674589Y-73473774D01*
X70822786Y-73621971D01*
X70977749Y-73734556D01*
X70988390Y-73742287D01*
X71104607Y-73801503D01*
X71170776Y-73835218D01*
X71170778Y-73835218D01*
X71170781Y-73835220D01*
X71275137Y-73869127D01*
X71365465Y-73898477D01*
X71417124Y-73906659D01*
X71567648Y-73930500D01*
X71567649Y-73930500D01*
X71772351Y-73930500D01*
X71772352Y-73930500D01*
X71974534Y-73898477D01*
X72169219Y-73835220D01*
X72351610Y-73742287D01*
X72444590Y-73674732D01*
X72517213Y-73621971D01*
X72517215Y-73621968D01*
X72517219Y-73621966D01*
X72661966Y-73477219D01*
X72661968Y-73477215D01*
X72661971Y-73477213D01*
X72715230Y-73403907D01*
X72782287Y-73311610D01*
X72875220Y-73129219D01*
X72938477Y-72934534D01*
X72970500Y-72732352D01*
X72970500Y-72527648D01*
X72938477Y-72325466D01*
X72926979Y-72290080D01*
X72875218Y-72130776D01*
X72798645Y-71980495D01*
X72782287Y-71948390D01*
X72706381Y-71843913D01*
X72661971Y-71782786D01*
X72517213Y-71638028D01*
X72351614Y-71517715D01*
X72345006Y-71514348D01*
X72258917Y-71470483D01*
X72208123Y-71422511D01*
X72191328Y-71354690D01*
X72213865Y-71288555D01*
X72258917Y-71249516D01*
X72351610Y-71202287D01*
X72392131Y-71172847D01*
X72517213Y-71081971D01*
X72517215Y-71081968D01*
X72517219Y-71081966D01*
X72661966Y-70937219D01*
X72661968Y-70937215D01*
X72661971Y-70937213D01*
X72714732Y-70864590D01*
X72782287Y-70771610D01*
X72875220Y-70589219D01*
X72938477Y-70394534D01*
X72970500Y-70192352D01*
X72970500Y-69987648D01*
X72938477Y-69785466D01*
X72875220Y-69590781D01*
X72875218Y-69590778D01*
X72875218Y-69590776D01*
X72841503Y-69524607D01*
X72782287Y-69408390D01*
X72774556Y-69397749D01*
X72661971Y-69242786D01*
X72517213Y-69098028D01*
X72351614Y-68977715D01*
X72345006Y-68974348D01*
X72258917Y-68930483D01*
X72208123Y-68882511D01*
X72191328Y-68814690D01*
X72213865Y-68748555D01*
X72258917Y-68709516D01*
X72351610Y-68662287D01*
X72372770Y-68646913D01*
X72517213Y-68541971D01*
X72517215Y-68541968D01*
X72517219Y-68541966D01*
X72661966Y-68397219D01*
X72661968Y-68397215D01*
X72661971Y-68397213D01*
X72714732Y-68324590D01*
X72782287Y-68231610D01*
X72875220Y-68049219D01*
X72938477Y-67854534D01*
X72970500Y-67652352D01*
X72970500Y-67447648D01*
X72938477Y-67245466D01*
X72875220Y-67050781D01*
X72875218Y-67050778D01*
X72875218Y-67050776D01*
X72841503Y-66984607D01*
X72782287Y-66868390D01*
X72774556Y-66857749D01*
X72661971Y-66702786D01*
X72517213Y-66558028D01*
X72351614Y-66437715D01*
X72300470Y-66411656D01*
X72258917Y-66390483D01*
X72208123Y-66342511D01*
X72191328Y-66274690D01*
X72213865Y-66208555D01*
X72258917Y-66169516D01*
X72351610Y-66122287D01*
X72457316Y-66045488D01*
X72517213Y-66001971D01*
X72517215Y-66001968D01*
X72517219Y-66001966D01*
X72661966Y-65857219D01*
X72661968Y-65857215D01*
X72661971Y-65857213D01*
X72729751Y-65763920D01*
X72782287Y-65691610D01*
X72875220Y-65509219D01*
X72938477Y-65314534D01*
X72970500Y-65112352D01*
X72970500Y-64907648D01*
X72968324Y-64893907D01*
X72938477Y-64705465D01*
X72875218Y-64510776D01*
X72841503Y-64444607D01*
X72782287Y-64328390D01*
X72774556Y-64317749D01*
X72661971Y-64162786D01*
X72517213Y-64018028D01*
X72351613Y-63897715D01*
X72351612Y-63897714D01*
X72351610Y-63897713D01*
X72294653Y-63868691D01*
X72169223Y-63804781D01*
X71974534Y-63741522D01*
X71796773Y-63713368D01*
X71772352Y-63709500D01*
X71567648Y-63709500D01*
X71543329Y-63713351D01*
X71365465Y-63741522D01*
X71170776Y-63804781D01*
X70988386Y-63897715D01*
X70822786Y-64018028D01*
X70822782Y-64018032D01*
X70674589Y-64166226D01*
X70673633Y-64165270D01*
X70620254Y-64200096D01*
X70550386Y-64200578D01*
X70491349Y-64163210D01*
X70461887Y-64099856D01*
X70460500Y-64081363D01*
X70460500Y-60858636D01*
X70480185Y-60791597D01*
X70532989Y-60745842D01*
X70602147Y-60735898D01*
X70665703Y-60764923D01*
X70674540Y-60773822D01*
X70674589Y-60773774D01*
X70822786Y-60921971D01*
X70951176Y-61015250D01*
X70988390Y-61042287D01*
X71104607Y-61101503D01*
X71170776Y-61135218D01*
X71170778Y-61135218D01*
X71170781Y-61135220D01*
X71275137Y-61169127D01*
X71365465Y-61198477D01*
X71466557Y-61214488D01*
X71567648Y-61230500D01*
X71567649Y-61230500D01*
X71772351Y-61230500D01*
X71772352Y-61230500D01*
X71974534Y-61198477D01*
X72169219Y-61135220D01*
X72351610Y-61042287D01*
X72478928Y-60949786D01*
X72517213Y-60921971D01*
X72517215Y-60921968D01*
X72517219Y-60921966D01*
X72661966Y-60777219D01*
X72661968Y-60777215D01*
X72661971Y-60777213D01*
X72714732Y-60704590D01*
X72782287Y-60611610D01*
X72875220Y-60429219D01*
X72938477Y-60234534D01*
X72970500Y-60032352D01*
X72970500Y-59827648D01*
X72938477Y-59625466D01*
X72928172Y-59593752D01*
X72909127Y-59535137D01*
X72875220Y-59430781D01*
X72875218Y-59430778D01*
X72875218Y-59430776D01*
X72811277Y-59305286D01*
X72782287Y-59248390D01*
X72735647Y-59184195D01*
X72661971Y-59082786D01*
X72517213Y-58938028D01*
X72351614Y-58817715D01*
X72345006Y-58814348D01*
X72258917Y-58770483D01*
X72208123Y-58722511D01*
X72191328Y-58654690D01*
X72213865Y-58588555D01*
X72258917Y-58549516D01*
X72351610Y-58502287D01*
X72372770Y-58486913D01*
X72517213Y-58381971D01*
X72517215Y-58381968D01*
X72517219Y-58381966D01*
X72661966Y-58237219D01*
X72661968Y-58237215D01*
X72661971Y-58237213D01*
X72723938Y-58151921D01*
X72782287Y-58071610D01*
X72875220Y-57889219D01*
X72938477Y-57694534D01*
X72970500Y-57492352D01*
X72970500Y-57287648D01*
X72952980Y-57177030D01*
X72938477Y-57085465D01*
X72909127Y-56995137D01*
X72875220Y-56890781D01*
X72875218Y-56890778D01*
X72875218Y-56890776D01*
X72841503Y-56824607D01*
X72782287Y-56708390D01*
X72749344Y-56663047D01*
X72661971Y-56542786D01*
X72517213Y-56398028D01*
X72351614Y-56277715D01*
X72310727Y-56256882D01*
X72258917Y-56230483D01*
X72208123Y-56182511D01*
X72191328Y-56114690D01*
X72213865Y-56048555D01*
X72258917Y-56009516D01*
X72351610Y-55962287D01*
X72429788Y-55905488D01*
X72517213Y-55841971D01*
X72517215Y-55841968D01*
X72517219Y-55841966D01*
X72661966Y-55697219D01*
X72661968Y-55697215D01*
X72661971Y-55697213D01*
X72729604Y-55604122D01*
X72782287Y-55531610D01*
X72875220Y-55349219D01*
X72938477Y-55154534D01*
X72939278Y-55149480D01*
X72970500Y-54952351D01*
X72970500Y-54747648D01*
X72938477Y-54545465D01*
X72875218Y-54350776D01*
X72841503Y-54284607D01*
X72782287Y-54168390D01*
X72774556Y-54157749D01*
X72661971Y-54002786D01*
X72517213Y-53858028D01*
X72351614Y-53737715D01*
X72345006Y-53734348D01*
X72258917Y-53690483D01*
X72208123Y-53642511D01*
X72191328Y-53574690D01*
X72213865Y-53508555D01*
X72258917Y-53469516D01*
X72351610Y-53422287D01*
X72372770Y-53406913D01*
X72517213Y-53301971D01*
X72517215Y-53301968D01*
X72517219Y-53301966D01*
X72661966Y-53157219D01*
X72661968Y-53157215D01*
X72661971Y-53157213D01*
X72714732Y-53084590D01*
X72782287Y-52991610D01*
X72875220Y-52809219D01*
X72938477Y-52614534D01*
X72970500Y-52412352D01*
X72970500Y-52207648D01*
X72938477Y-52005466D01*
X72875220Y-51810781D01*
X72875218Y-51810778D01*
X72875218Y-51810776D01*
X72841503Y-51744607D01*
X72782287Y-51628390D01*
X72774556Y-51617749D01*
X72661971Y-51462786D01*
X72517213Y-51318028D01*
X72351613Y-51197715D01*
X72351612Y-51197714D01*
X72351610Y-51197713D01*
X72294653Y-51168691D01*
X72169223Y-51104781D01*
X71974534Y-51041522D01*
X71799995Y-51013878D01*
X71772352Y-51009500D01*
X71567648Y-51009500D01*
X71543329Y-51013351D01*
X71365465Y-51041522D01*
X71170776Y-51104781D01*
X70988386Y-51197715D01*
X70822786Y-51318028D01*
X70822782Y-51318032D01*
X70674589Y-51466226D01*
X70673633Y-51465270D01*
X70620254Y-51500096D01*
X70550386Y-51500578D01*
X70491349Y-51463210D01*
X70461887Y-51399856D01*
X70460500Y-51381363D01*
X70460500Y-48158636D01*
X70480185Y-48091597D01*
X70532989Y-48045842D01*
X70602147Y-48035898D01*
X70665703Y-48064923D01*
X70674540Y-48073822D01*
X70674589Y-48073774D01*
X70822786Y-48221971D01*
X70934888Y-48303416D01*
X70988390Y-48342287D01*
X71104607Y-48401503D01*
X71170776Y-48435218D01*
X71170778Y-48435218D01*
X71170781Y-48435220D01*
X71275137Y-48469127D01*
X71365465Y-48498477D01*
X71466557Y-48514488D01*
X71567648Y-48530500D01*
X71567649Y-48530500D01*
X71772351Y-48530500D01*
X71772352Y-48530500D01*
X71974534Y-48498477D01*
X72169219Y-48435220D01*
X72351610Y-48342287D01*
X72444590Y-48274732D01*
X72517213Y-48221971D01*
X72517215Y-48221968D01*
X72517219Y-48221966D01*
X72661966Y-48077219D01*
X72661968Y-48077215D01*
X72661971Y-48077213D01*
X72714732Y-48004590D01*
X72782287Y-47911610D01*
X72875220Y-47729219D01*
X72938477Y-47534534D01*
X72970500Y-47332352D01*
X72970500Y-47127648D01*
X72938477Y-46925466D01*
X72875220Y-46730781D01*
X72875218Y-46730778D01*
X72875218Y-46730776D01*
X72841503Y-46664607D01*
X72782287Y-46548390D01*
X72774556Y-46537749D01*
X72661971Y-46382786D01*
X72517213Y-46238028D01*
X72351614Y-46117715D01*
X72345006Y-46114348D01*
X72258917Y-46070483D01*
X72208123Y-46022511D01*
X72191328Y-45954690D01*
X72213865Y-45888555D01*
X72258917Y-45849516D01*
X72351610Y-45802287D01*
X72372770Y-45786913D01*
X72517213Y-45681971D01*
X72517215Y-45681968D01*
X72517219Y-45681966D01*
X72661966Y-45537219D01*
X72661968Y-45537215D01*
X72661971Y-45537213D01*
X72714732Y-45464590D01*
X72782287Y-45371610D01*
X72875220Y-45189219D01*
X72938477Y-44994534D01*
X72970500Y-44792352D01*
X72970500Y-44587648D01*
X72938477Y-44385466D01*
X72875220Y-44190781D01*
X72875218Y-44190778D01*
X72875218Y-44190776D01*
X72841503Y-44124607D01*
X72782287Y-44008390D01*
X72774556Y-43997749D01*
X72661971Y-43842786D01*
X72517213Y-43698028D01*
X72351614Y-43577715D01*
X72345006Y-43574348D01*
X72258917Y-43530483D01*
X72208123Y-43482511D01*
X72191328Y-43414690D01*
X72213865Y-43348555D01*
X72258917Y-43309516D01*
X72351610Y-43262287D01*
X72372770Y-43246913D01*
X72517213Y-43141971D01*
X72517215Y-43141968D01*
X72517219Y-43141966D01*
X72661966Y-42997219D01*
X72661968Y-42997215D01*
X72661971Y-42997213D01*
X72714732Y-42924590D01*
X72782287Y-42831610D01*
X72875220Y-42649219D01*
X72938477Y-42454534D01*
X72970500Y-42252352D01*
X72970500Y-42047648D01*
X72938477Y-41845466D01*
X72875220Y-41650781D01*
X72875218Y-41650778D01*
X72875218Y-41650776D01*
X72841503Y-41584607D01*
X72782287Y-41468390D01*
X72774556Y-41457749D01*
X72661971Y-41302786D01*
X72517213Y-41158028D01*
X72351614Y-41037715D01*
X72345006Y-41034348D01*
X72258917Y-40990483D01*
X72208123Y-40942511D01*
X72191328Y-40874690D01*
X72213865Y-40808555D01*
X72258917Y-40769516D01*
X72351610Y-40722287D01*
X72372770Y-40706913D01*
X72517213Y-40601971D01*
X72517215Y-40601968D01*
X72517219Y-40601966D01*
X72661966Y-40457219D01*
X72661968Y-40457215D01*
X72661971Y-40457213D01*
X72714732Y-40384590D01*
X72782287Y-40291610D01*
X72875220Y-40109219D01*
X72938477Y-39914534D01*
X72970500Y-39712352D01*
X72970500Y-39507648D01*
X72938477Y-39305466D01*
X72875220Y-39110781D01*
X72875218Y-39110778D01*
X72875218Y-39110776D01*
X72841503Y-39044607D01*
X72782287Y-38928390D01*
X72774556Y-38917749D01*
X72661971Y-38762786D01*
X72517213Y-38618028D01*
X72351613Y-38497715D01*
X72351612Y-38497714D01*
X72351610Y-38497713D01*
X72294653Y-38468691D01*
X72169223Y-38404781D01*
X71974534Y-38341522D01*
X71799995Y-38313878D01*
X71772352Y-38309500D01*
X71567648Y-38309500D01*
X71543329Y-38313351D01*
X71365465Y-38341522D01*
X71170776Y-38404781D01*
X70988386Y-38497715D01*
X70822786Y-38618028D01*
X70822782Y-38618032D01*
X70674589Y-38766226D01*
X70673633Y-38765270D01*
X70620254Y-38800096D01*
X70550386Y-38800578D01*
X70491349Y-38763210D01*
X70461887Y-38699856D01*
X70460500Y-38681363D01*
X70460500Y-36434315D01*
X76917494Y-36434315D01*
X76917494Y-36525684D01*
X76931310Y-36630634D01*
X76954957Y-36718886D01*
X76954958Y-36718890D01*
X76954959Y-36718891D01*
X76995468Y-36816687D01*
X76995470Y-36816690D01*
X76995471Y-36816692D01*
X77041150Y-36895812D01*
X77041157Y-36895822D01*
X77105596Y-36979801D01*
X77105600Y-36979806D01*
X77170193Y-37044399D01*
X77170198Y-37044403D01*
X77170201Y-37044406D01*
X77254185Y-37108848D01*
X77333313Y-37154532D01*
X77431109Y-37195041D01*
X77519364Y-37218689D01*
X77571840Y-37225597D01*
X77624315Y-37232506D01*
X77624316Y-37232506D01*
X77715685Y-37232506D01*
X77750668Y-37227900D01*
X77820636Y-37218689D01*
X77908891Y-37195041D01*
X78006687Y-37154532D01*
X78085815Y-37108848D01*
X78169799Y-37044406D01*
X78234406Y-36979799D01*
X78298848Y-36895815D01*
X78344532Y-36816687D01*
X78385041Y-36718891D01*
X78408689Y-36630636D01*
X78422506Y-36525684D01*
X78422506Y-36434316D01*
X78422506Y-36434315D01*
X82697494Y-36434315D01*
X82697494Y-36525684D01*
X82711310Y-36630634D01*
X82734957Y-36718886D01*
X82734958Y-36718890D01*
X82734959Y-36718891D01*
X82775468Y-36816687D01*
X82775470Y-36816690D01*
X82775471Y-36816692D01*
X82821150Y-36895812D01*
X82821157Y-36895822D01*
X82885596Y-36979801D01*
X82885600Y-36979806D01*
X82950193Y-37044399D01*
X82950198Y-37044403D01*
X82950201Y-37044406D01*
X83034185Y-37108848D01*
X83113313Y-37154532D01*
X83211109Y-37195041D01*
X83299364Y-37218689D01*
X83351840Y-37225597D01*
X83404315Y-37232506D01*
X83404316Y-37232506D01*
X83495685Y-37232506D01*
X83530668Y-37227900D01*
X83600636Y-37218689D01*
X83688891Y-37195041D01*
X83786687Y-37154532D01*
X83865815Y-37108848D01*
X83949799Y-37044406D01*
X84014406Y-36979799D01*
X84078848Y-36895815D01*
X84124532Y-36816687D01*
X84165041Y-36718891D01*
X84188689Y-36630636D01*
X84202506Y-36525684D01*
X84202506Y-36434316D01*
X84188689Y-36329364D01*
X84165041Y-36241109D01*
X84124532Y-36143313D01*
X84078848Y-36064185D01*
X84014406Y-35980201D01*
X84014403Y-35980198D01*
X84014399Y-35980193D01*
X83949806Y-35915600D01*
X83949801Y-35915596D01*
X83949799Y-35915594D01*
X83865815Y-35851152D01*
X83786687Y-35805468D01*
X83688891Y-35764959D01*
X83688890Y-35764958D01*
X83688886Y-35764957D01*
X83600634Y-35741310D01*
X83495685Y-35727494D01*
X83495684Y-35727494D01*
X83404316Y-35727494D01*
X83404315Y-35727494D01*
X83299365Y-35741310D01*
X83211113Y-35764957D01*
X83162211Y-35785213D01*
X83113313Y-35805468D01*
X83113310Y-35805469D01*
X83113309Y-35805470D01*
X83113307Y-35805471D01*
X83034187Y-35851150D01*
X83034177Y-35851157D01*
X82950198Y-35915596D01*
X82950193Y-35915600D01*
X82885600Y-35980193D01*
X82885596Y-35980198D01*
X82821157Y-36064177D01*
X82821150Y-36064187D01*
X82775471Y-36143307D01*
X82775470Y-36143309D01*
X82734957Y-36241113D01*
X82711310Y-36329365D01*
X82697494Y-36434315D01*
X78422506Y-36434315D01*
X78408689Y-36329364D01*
X78385041Y-36241109D01*
X78344532Y-36143313D01*
X78298848Y-36064185D01*
X78234406Y-35980201D01*
X78234403Y-35980198D01*
X78234399Y-35980193D01*
X78169806Y-35915600D01*
X78169801Y-35915596D01*
X78169799Y-35915594D01*
X78085815Y-35851152D01*
X78006687Y-35805468D01*
X77908891Y-35764959D01*
X77908890Y-35764958D01*
X77908886Y-35764957D01*
X77820634Y-35741310D01*
X77715685Y-35727494D01*
X77715684Y-35727494D01*
X77624316Y-35727494D01*
X77624315Y-35727494D01*
X77519365Y-35741310D01*
X77431113Y-35764957D01*
X77382211Y-35785213D01*
X77333313Y-35805468D01*
X77333310Y-35805469D01*
X77333309Y-35805470D01*
X77333307Y-35805471D01*
X77254187Y-35851150D01*
X77254177Y-35851157D01*
X77170198Y-35915596D01*
X77170193Y-35915600D01*
X77105600Y-35980193D01*
X77105596Y-35980198D01*
X77041157Y-36064177D01*
X77041150Y-36064187D01*
X76995471Y-36143307D01*
X76995470Y-36143309D01*
X76954957Y-36241113D01*
X76931310Y-36329365D01*
X76917494Y-36434315D01*
X70460500Y-36434315D01*
X70460500Y-35458636D01*
X70480185Y-35391597D01*
X70532989Y-35345842D01*
X70602147Y-35335898D01*
X70665703Y-35364923D01*
X70674540Y-35373822D01*
X70674589Y-35373774D01*
X70822786Y-35521971D01*
X70977749Y-35634556D01*
X70988390Y-35642287D01*
X71104607Y-35701503D01*
X71170776Y-35735218D01*
X71170778Y-35735218D01*
X71170781Y-35735220D01*
X71262302Y-35764957D01*
X71365465Y-35798477D01*
X71466557Y-35814488D01*
X71567648Y-35830500D01*
X71567649Y-35830500D01*
X71772351Y-35830500D01*
X71772352Y-35830500D01*
X71974534Y-35798477D01*
X72169219Y-35735220D01*
X72351610Y-35642287D01*
X72444590Y-35574732D01*
X72517213Y-35521971D01*
X72517215Y-35521968D01*
X72517219Y-35521966D01*
X72661966Y-35377219D01*
X72661968Y-35377215D01*
X72661971Y-35377213D01*
X72714732Y-35304590D01*
X72782287Y-35211610D01*
X72875220Y-35029219D01*
X72938477Y-34834534D01*
X72970500Y-34632352D01*
X72970500Y-34427648D01*
X72938477Y-34225466D01*
X72875220Y-34030781D01*
X72875218Y-34030778D01*
X72875218Y-34030776D01*
X72841503Y-33964607D01*
X72782287Y-33848390D01*
X72774556Y-33837749D01*
X72661971Y-33682786D01*
X72517213Y-33538028D01*
X72351614Y-33417715D01*
X72345006Y-33414348D01*
X72258917Y-33370483D01*
X72208123Y-33322511D01*
X72191328Y-33254690D01*
X72213865Y-33188555D01*
X72258917Y-33149516D01*
X72351610Y-33102287D01*
X72372770Y-33086913D01*
X72517213Y-32981971D01*
X72517215Y-32981968D01*
X72517219Y-32981966D01*
X72661966Y-32837219D01*
X72661968Y-32837215D01*
X72661971Y-32837213D01*
X72714732Y-32764590D01*
X72782287Y-32671610D01*
X72875220Y-32489219D01*
X72938477Y-32294534D01*
X72970500Y-32092352D01*
X72970500Y-31887648D01*
X72938477Y-31685466D01*
X72875220Y-31490781D01*
X72875218Y-31490778D01*
X72875218Y-31490776D01*
X72841503Y-31424607D01*
X72782287Y-31308390D01*
X72716169Y-31217385D01*
X72692689Y-31151579D01*
X72708515Y-31083525D01*
X72758620Y-31034830D01*
X72816487Y-31020500D01*
X88303513Y-31020500D01*
X88370552Y-31040185D01*
G37*
%TD.AperFunction*%
%TA.AperFunction,Conductor*%
G36*
X78865703Y-76825384D02*
G01*
X78872181Y-76831416D01*
X81806241Y-79765476D01*
X81839726Y-79826799D01*
X81836492Y-79891473D01*
X81822753Y-79933757D01*
X81789500Y-80143713D01*
X81789500Y-80356286D01*
X81822753Y-80566239D01*
X81888444Y-80768414D01*
X81984951Y-80957820D01*
X82032027Y-81022615D01*
X82055507Y-81088422D01*
X82039681Y-81156475D01*
X81989575Y-81205170D01*
X81931709Y-81219500D01*
X79268291Y-81219500D01*
X79201252Y-81199815D01*
X79155497Y-81147011D01*
X79145553Y-81077853D01*
X79167973Y-81022615D01*
X79215048Y-80957820D01*
X79215047Y-80957820D01*
X79215051Y-80957816D01*
X79311557Y-80768412D01*
X79377246Y-80566243D01*
X79410500Y-80356287D01*
X79410500Y-80143713D01*
X79377246Y-79933757D01*
X79311557Y-79731588D01*
X79215051Y-79542184D01*
X79215049Y-79542181D01*
X79215048Y-79542179D01*
X79090109Y-79370213D01*
X78939786Y-79219890D01*
X78767815Y-79094948D01*
X78767814Y-79094947D01*
X78728205Y-79074765D01*
X78677409Y-79026791D01*
X78660500Y-78964281D01*
X78660500Y-76919097D01*
X78680185Y-76852058D01*
X78732989Y-76806303D01*
X78802147Y-76796359D01*
X78865703Y-76825384D01*
G37*
%TD.AperFunction*%
%TA.AperFunction,Conductor*%
G36*
X88323862Y-58109757D02*
G01*
X88340780Y-58110967D01*
X88355747Y-58122171D01*
X88373167Y-58128954D01*
X88395487Y-58151921D01*
X88396713Y-58152839D01*
X88397765Y-58154265D01*
X88458030Y-58237215D01*
X88602786Y-58381971D01*
X88757749Y-58494556D01*
X88768390Y-58502287D01*
X88859840Y-58548883D01*
X88861080Y-58549515D01*
X88911876Y-58597490D01*
X88928671Y-58665311D01*
X88906134Y-58731446D01*
X88861080Y-58770485D01*
X88768386Y-58817715D01*
X88602786Y-58938028D01*
X88458028Y-59082786D01*
X88337715Y-59248386D01*
X88244781Y-59430776D01*
X88181522Y-59625465D01*
X88149500Y-59827648D01*
X88149500Y-60032351D01*
X88181522Y-60234534D01*
X88244781Y-60429223D01*
X88290478Y-60518907D01*
X88333539Y-60603419D01*
X88337715Y-60611613D01*
X88458028Y-60777213D01*
X88602786Y-60921971D01*
X88731176Y-61015250D01*
X88768390Y-61042287D01*
X88884607Y-61101503D01*
X88950776Y-61135218D01*
X88950778Y-61135218D01*
X88950781Y-61135220D01*
X89055137Y-61169127D01*
X89145465Y-61198477D01*
X89246557Y-61214488D01*
X89347648Y-61230500D01*
X89347649Y-61230500D01*
X89552351Y-61230500D01*
X89552352Y-61230500D01*
X89754534Y-61198477D01*
X89949219Y-61135220D01*
X90131610Y-61042287D01*
X90258928Y-60949786D01*
X90297213Y-60921971D01*
X90297215Y-60921968D01*
X90297219Y-60921966D01*
X90441966Y-60777219D01*
X90441966Y-60777218D01*
X90445411Y-60773774D01*
X90446370Y-60774733D01*
X90499725Y-60739909D01*
X90569593Y-60739415D01*
X90628637Y-60776773D01*
X90658110Y-60840122D01*
X90659500Y-60858636D01*
X90659500Y-64081363D01*
X90639815Y-64148402D01*
X90587011Y-64194157D01*
X90517853Y-64204101D01*
X90454297Y-64175076D01*
X90445459Y-64166177D01*
X90445411Y-64166226D01*
X90297213Y-64018028D01*
X90131613Y-63897715D01*
X90131612Y-63897714D01*
X90131610Y-63897713D01*
X90074653Y-63868691D01*
X89949223Y-63804781D01*
X89754534Y-63741522D01*
X89576773Y-63713368D01*
X89552352Y-63709500D01*
X89347648Y-63709500D01*
X89323329Y-63713351D01*
X89145465Y-63741522D01*
X88950776Y-63804781D01*
X88768386Y-63897715D01*
X88602786Y-64018028D01*
X88458028Y-64162786D01*
X88337715Y-64328386D01*
X88244781Y-64510776D01*
X88181522Y-64705465D01*
X88149500Y-64907648D01*
X88149500Y-65112351D01*
X88181522Y-65314534D01*
X88244781Y-65509223D01*
X88337715Y-65691613D01*
X88458028Y-65857213D01*
X88602786Y-66001971D01*
X88757749Y-66114556D01*
X88768390Y-66122287D01*
X88858921Y-66168415D01*
X88861080Y-66169515D01*
X88911876Y-66217490D01*
X88928671Y-66285311D01*
X88906134Y-66351446D01*
X88861080Y-66390485D01*
X88768386Y-66437715D01*
X88602786Y-66558028D01*
X88458028Y-66702786D01*
X88337715Y-66868386D01*
X88244781Y-67050776D01*
X88181522Y-67245465D01*
X88149500Y-67447648D01*
X88149500Y-67652351D01*
X88181522Y-67854534D01*
X88244781Y-68049223D01*
X88337715Y-68231613D01*
X88458028Y-68397213D01*
X88602786Y-68541971D01*
X88757749Y-68654556D01*
X88768390Y-68662287D01*
X88859840Y-68708883D01*
X88861080Y-68709515D01*
X88911876Y-68757490D01*
X88928671Y-68825311D01*
X88906134Y-68891446D01*
X88861080Y-68930485D01*
X88768386Y-68977715D01*
X88602786Y-69098028D01*
X88458028Y-69242786D01*
X88337715Y-69408386D01*
X88244781Y-69590776D01*
X88181522Y-69785465D01*
X88149500Y-69987648D01*
X88149500Y-70192351D01*
X88181522Y-70394534D01*
X88244781Y-70589223D01*
X88337715Y-70771613D01*
X88458028Y-70937213D01*
X88602786Y-71081971D01*
X88727869Y-71172847D01*
X88768390Y-71202287D01*
X88859840Y-71248883D01*
X88861080Y-71249515D01*
X88911876Y-71297490D01*
X88928671Y-71365311D01*
X88906134Y-71431446D01*
X88861080Y-71470485D01*
X88768386Y-71517715D01*
X88602786Y-71638028D01*
X88458028Y-71782786D01*
X88337715Y-71948386D01*
X88244781Y-72130776D01*
X88181522Y-72325465D01*
X88149500Y-72527648D01*
X88149500Y-72732351D01*
X88181522Y-72934534D01*
X88244781Y-73129223D01*
X88337715Y-73311613D01*
X88458028Y-73477213D01*
X88602786Y-73621971D01*
X88757749Y-73734556D01*
X88768390Y-73742287D01*
X88884607Y-73801503D01*
X88950776Y-73835218D01*
X88950778Y-73835218D01*
X88950781Y-73835220D01*
X89055137Y-73869127D01*
X89145465Y-73898477D01*
X89197124Y-73906659D01*
X89347648Y-73930500D01*
X89347649Y-73930500D01*
X89552351Y-73930500D01*
X89552352Y-73930500D01*
X89754534Y-73898477D01*
X89949219Y-73835220D01*
X90131610Y-73742287D01*
X90224590Y-73674732D01*
X90297213Y-73621971D01*
X90297215Y-73621968D01*
X90297219Y-73621966D01*
X90441966Y-73477219D01*
X90441966Y-73477218D01*
X90445411Y-73473774D01*
X90446370Y-73474733D01*
X90499725Y-73439909D01*
X90569593Y-73439415D01*
X90628637Y-73476773D01*
X90658110Y-73540122D01*
X90659500Y-73558636D01*
X90659500Y-76781363D01*
X90639815Y-76848402D01*
X90587011Y-76894157D01*
X90517853Y-76904101D01*
X90454297Y-76875076D01*
X90445459Y-76866177D01*
X90445411Y-76866226D01*
X90297213Y-76718028D01*
X90131613Y-76597715D01*
X90131612Y-76597714D01*
X90131610Y-76597713D01*
X90074653Y-76568691D01*
X89949223Y-76504781D01*
X89754534Y-76441522D01*
X89579995Y-76413878D01*
X89552352Y-76409500D01*
X89347648Y-76409500D01*
X89323329Y-76413351D01*
X89145465Y-76441522D01*
X88950776Y-76504781D01*
X88768386Y-76597715D01*
X88602786Y-76718028D01*
X88458028Y-76862786D01*
X88337715Y-77028386D01*
X88244781Y-77210776D01*
X88181522Y-77405465D01*
X88149500Y-77607648D01*
X88149500Y-77812351D01*
X88181522Y-78014534D01*
X88244781Y-78209223D01*
X88337715Y-78391613D01*
X88458028Y-78557213D01*
X88602786Y-78701971D01*
X88757749Y-78814556D01*
X88768390Y-78822287D01*
X88859840Y-78868883D01*
X88861080Y-78869515D01*
X88911876Y-78917490D01*
X88928671Y-78985311D01*
X88906134Y-79051446D01*
X88861080Y-79090485D01*
X88768386Y-79137715D01*
X88602786Y-79258028D01*
X88458028Y-79402786D01*
X88337715Y-79568386D01*
X88244781Y-79750776D01*
X88181522Y-79945465D01*
X88149500Y-80147648D01*
X88149500Y-80352351D01*
X88181522Y-80554534D01*
X88244781Y-80749223D01*
X88337715Y-80931613D01*
X88403831Y-81022615D01*
X88427311Y-81088421D01*
X88411485Y-81156475D01*
X88361380Y-81205170D01*
X88303513Y-81219500D01*
X84348291Y-81219500D01*
X84281252Y-81199815D01*
X84235497Y-81147011D01*
X84225553Y-81077853D01*
X84247973Y-81022615D01*
X84295048Y-80957820D01*
X84295047Y-80957820D01*
X84295051Y-80957816D01*
X84391557Y-80768412D01*
X84457246Y-80566243D01*
X84490500Y-80356287D01*
X84490500Y-80143713D01*
X84457246Y-79933757D01*
X84391557Y-79731588D01*
X84295051Y-79542184D01*
X84295049Y-79542181D01*
X84295048Y-79542179D01*
X84170109Y-79370213D01*
X84019786Y-79219890D01*
X83847820Y-79094951D01*
X83658414Y-78998444D01*
X83658413Y-78998443D01*
X83658412Y-78998443D01*
X83456243Y-78932754D01*
X83456241Y-78932753D01*
X83456240Y-78932753D01*
X83294957Y-78907208D01*
X83246287Y-78899500D01*
X83033713Y-78899500D01*
X83005006Y-78904046D01*
X82823757Y-78932753D01*
X82781473Y-78946492D01*
X82711632Y-78948486D01*
X82655476Y-78916241D01*
X78997819Y-75258583D01*
X78964334Y-75197260D01*
X78961500Y-75170902D01*
X78961500Y-63014096D01*
X78981185Y-62947057D01*
X78997814Y-62926420D01*
X81028301Y-60895932D01*
X81041350Y-60888234D01*
X81049465Y-60878964D01*
X81073175Y-60869459D01*
X81081643Y-60864464D01*
X81086650Y-60863020D01*
X81168913Y-60846658D01*
X81227181Y-60822522D01*
X81233862Y-60820597D01*
X81262119Y-60820738D01*
X81290214Y-60817718D01*
X81301169Y-60820935D01*
X81303730Y-60820948D01*
X81305804Y-60822296D01*
X81315650Y-60825187D01*
X81334522Y-60833004D01*
X81367479Y-60846656D01*
X81367482Y-60846656D01*
X81367485Y-60846658D01*
X81367489Y-60846658D01*
X81367490Y-60846659D01*
X81512477Y-60875500D01*
X81512480Y-60875500D01*
X81660318Y-60875500D01*
X81757860Y-60856096D01*
X81805311Y-60846658D01*
X81910945Y-60802902D01*
X81941886Y-60790087D01*
X81941886Y-60790086D01*
X81941893Y-60790084D01*
X82064814Y-60707951D01*
X82169349Y-60603416D01*
X82251482Y-60480495D01*
X82308056Y-60343913D01*
X82329008Y-60238583D01*
X82336898Y-60198920D01*
X82336898Y-60051079D01*
X82308057Y-59906092D01*
X82308056Y-59906091D01*
X82308056Y-59906087D01*
X82273052Y-59821580D01*
X82251485Y-59769511D01*
X82251478Y-59769498D01*
X82169349Y-59646584D01*
X82169346Y-59646580D01*
X82064817Y-59542051D01*
X82064813Y-59542048D01*
X81941899Y-59459919D01*
X81941886Y-59459912D01*
X81805315Y-59403343D01*
X81805305Y-59403340D01*
X81742654Y-59390878D01*
X81733649Y-59386168D01*
X81723512Y-59385443D01*
X81703212Y-59370246D01*
X81680743Y-59358493D01*
X81675713Y-59349660D01*
X81667579Y-59343571D01*
X81658718Y-59319815D01*
X81646169Y-59297777D01*
X81646713Y-59287628D01*
X81643162Y-59278107D01*
X81648552Y-59253328D01*
X81649910Y-59228007D01*
X81656249Y-59217946D01*
X81658014Y-59209834D01*
X81679159Y-59181586D01*
X81823929Y-59036816D01*
X81885250Y-59003334D01*
X81911608Y-59000500D01*
X82210233Y-59000500D01*
X82277272Y-59020185D01*
X82279124Y-59021398D01*
X82344498Y-59065080D01*
X82344511Y-59065087D01*
X82481082Y-59121656D01*
X82481087Y-59121658D01*
X82481091Y-59121658D01*
X82481092Y-59121659D01*
X82626079Y-59150500D01*
X82626082Y-59150500D01*
X82773920Y-59150500D01*
X82851308Y-59135106D01*
X82920899Y-59141333D01*
X82976077Y-59184195D01*
X82999322Y-59250085D01*
X82999500Y-59256723D01*
X82999500Y-61174224D01*
X82979815Y-61241263D01*
X82963181Y-61261905D01*
X80969481Y-63255604D01*
X80969481Y-63255605D01*
X80969480Y-63255606D01*
X80969480Y-63255607D01*
X80919361Y-63342416D01*
X80919359Y-63342418D01*
X80890425Y-63392531D01*
X80890424Y-63392532D01*
X80890423Y-63392537D01*
X80849499Y-63545265D01*
X80849499Y-63545267D01*
X80849499Y-63713368D01*
X80849500Y-63713381D01*
X80849500Y-71135232D01*
X80829815Y-71202271D01*
X80828603Y-71204122D01*
X80784914Y-71269508D01*
X80728343Y-71406082D01*
X80728340Y-71406092D01*
X80699500Y-71551079D01*
X80699500Y-71551082D01*
X80699500Y-71698918D01*
X80699500Y-71698920D01*
X80699499Y-71698920D01*
X80728340Y-71843907D01*
X80728343Y-71843917D01*
X80784912Y-71980488D01*
X80784919Y-71980501D01*
X80867048Y-72103415D01*
X80867051Y-72103419D01*
X80971580Y-72207948D01*
X80971584Y-72207951D01*
X81094498Y-72290080D01*
X81094511Y-72290087D01*
X81231082Y-72346656D01*
X81231087Y-72346658D01*
X81231091Y-72346658D01*
X81231092Y-72346659D01*
X81376079Y-72375500D01*
X81376082Y-72375500D01*
X81523920Y-72375500D01*
X81621462Y-72356096D01*
X81668913Y-72346658D01*
X81805495Y-72290084D01*
X81928416Y-72207951D01*
X82032951Y-72103416D01*
X82115084Y-71980495D01*
X82171658Y-71843913D01*
X82183818Y-71782781D01*
X82200500Y-71698920D01*
X82200500Y-71551079D01*
X82171659Y-71406092D01*
X82171658Y-71406091D01*
X82171658Y-71406087D01*
X82115084Y-71269505D01*
X82071396Y-71204121D01*
X82050520Y-71137444D01*
X82050500Y-71135232D01*
X82050500Y-66440737D01*
X82070185Y-66373698D01*
X82122989Y-66327943D01*
X82192147Y-66317999D01*
X82243391Y-66337635D01*
X82269505Y-66355084D01*
X82269507Y-66355084D01*
X82269511Y-66355087D01*
X82406082Y-66411656D01*
X82406087Y-66411658D01*
X82406091Y-66411658D01*
X82406092Y-66411659D01*
X82551079Y-66440500D01*
X82551082Y-66440500D01*
X82698920Y-66440500D01*
X82796462Y-66421096D01*
X82843913Y-66411658D01*
X82980495Y-66355084D01*
X83103416Y-66272951D01*
X83207951Y-66168416D01*
X83290084Y-66045495D01*
X83346658Y-65908913D01*
X83363182Y-65825842D01*
X83375500Y-65763920D01*
X83375500Y-65616079D01*
X83346659Y-65471092D01*
X83346658Y-65471091D01*
X83346658Y-65471087D01*
X83290084Y-65334505D01*
X83246396Y-65269121D01*
X83225520Y-65202444D01*
X83225500Y-65200232D01*
X83225500Y-63175096D01*
X83245185Y-63108057D01*
X83261814Y-63087420D01*
X85412819Y-60936414D01*
X85474142Y-60902930D01*
X85543834Y-60907914D01*
X85599767Y-60949786D01*
X85624184Y-61015250D01*
X85624500Y-61024096D01*
X85624500Y-62674902D01*
X85604815Y-62741941D01*
X85588181Y-62762583D01*
X84446699Y-63904064D01*
X84385376Y-63937549D01*
X84383210Y-63938000D01*
X84306092Y-63953340D01*
X84306084Y-63953342D01*
X84169511Y-64009912D01*
X84169498Y-64009919D01*
X84046584Y-64092048D01*
X84046580Y-64092051D01*
X83942051Y-64196580D01*
X83942048Y-64196584D01*
X83859919Y-64319498D01*
X83859912Y-64319511D01*
X83803343Y-64456082D01*
X83803340Y-64456092D01*
X83774500Y-64601079D01*
X83774500Y-64601082D01*
X83774500Y-64748918D01*
X83774500Y-64748920D01*
X83774499Y-64748920D01*
X83803340Y-64893907D01*
X83803343Y-64893917D01*
X83859912Y-65030488D01*
X83859919Y-65030501D01*
X83903602Y-65095876D01*
X83924480Y-65162553D01*
X83924500Y-65164767D01*
X83924500Y-72972817D01*
X83904815Y-73039856D01*
X83903602Y-73041708D01*
X83834919Y-73144498D01*
X83834912Y-73144511D01*
X83778343Y-73281082D01*
X83778340Y-73281092D01*
X83749500Y-73426079D01*
X83749500Y-73426082D01*
X83749500Y-73573918D01*
X83749500Y-73573920D01*
X83749499Y-73573920D01*
X83778340Y-73718907D01*
X83778343Y-73718917D01*
X83834912Y-73855488D01*
X83834919Y-73855501D01*
X83917048Y-73978415D01*
X83917051Y-73978419D01*
X84021580Y-74082948D01*
X84021584Y-74082951D01*
X84144498Y-74165080D01*
X84144511Y-74165087D01*
X84281082Y-74221656D01*
X84281087Y-74221658D01*
X84281091Y-74221658D01*
X84281092Y-74221659D01*
X84426079Y-74250500D01*
X84426082Y-74250500D01*
X84573920Y-74250500D01*
X84671462Y-74231096D01*
X84718913Y-74221658D01*
X84855495Y-74165084D01*
X84978416Y-74082951D01*
X85082951Y-73978416D01*
X85165084Y-73855495D01*
X85221658Y-73718913D01*
X85232698Y-73663415D01*
X85250500Y-73573920D01*
X85250500Y-73426079D01*
X85221659Y-73281092D01*
X85221658Y-73281091D01*
X85221658Y-73281087D01*
X85194086Y-73214521D01*
X85165086Y-73144508D01*
X85146397Y-73116538D01*
X85125520Y-73049861D01*
X85125500Y-73047648D01*
X85125500Y-65164767D01*
X85145185Y-65097728D01*
X85146398Y-65095876D01*
X85190080Y-65030501D01*
X85190080Y-65030500D01*
X85190084Y-65030495D01*
X85246658Y-64893913D01*
X85261999Y-64816786D01*
X85294381Y-64754879D01*
X85295876Y-64753357D01*
X86583506Y-63465728D01*
X86583511Y-63465724D01*
X86593714Y-63455520D01*
X86593716Y-63455520D01*
X86705520Y-63343716D01*
X86756390Y-63255606D01*
X86756392Y-63255604D01*
X86784574Y-63206790D01*
X86784573Y-63206790D01*
X86784577Y-63206785D01*
X86825500Y-63054057D01*
X86825500Y-62895943D01*
X86825500Y-60789767D01*
X86845185Y-60722728D01*
X86846398Y-60720876D01*
X86890080Y-60655501D01*
X86890080Y-60655500D01*
X86890084Y-60655495D01*
X86946658Y-60518913D01*
X86975500Y-60373918D01*
X86975500Y-60226082D01*
X86975500Y-60226079D01*
X86946659Y-60081092D01*
X86946658Y-60081091D01*
X86946658Y-60081087D01*
X86934228Y-60051079D01*
X86890087Y-59944511D01*
X86890080Y-59944498D01*
X86807951Y-59821584D01*
X86807948Y-59821580D01*
X86755482Y-59769114D01*
X86721997Y-59707791D01*
X86726981Y-59638099D01*
X86755482Y-59593752D01*
X87411206Y-58938028D01*
X88209767Y-58139466D01*
X88226172Y-58130508D01*
X88239580Y-58117479D01*
X88256202Y-58114110D01*
X88271088Y-58105983D01*
X88289735Y-58107316D01*
X88308059Y-58103604D01*
X88323862Y-58109757D01*
G37*
%TD.AperFunction*%
%TD*%
M02*
